<svg width="36" height="36" viewBox="0 0 36 36" fill="none" xmlns="http://www.w3.org/2000/svg">
<path fill-rule="evenodd" clip-rule="evenodd" d="M7.5 24.375C8.12132 24.375 8.625 24.8787 8.625 25.5V28.5C8.625 28.7071 8.79289 28.875 9 28.875H27C27.2071 28.875 27.375 28.7071 27.375 28.5V25.5C27.375 24.8787 27.8787 24.375 28.5 24.375C29.1213 24.375 29.625 24.8787 29.625 25.5V28.5C29.625 29.9497 28.4497 31.125 27 31.125H9C7.55025 31.125 6.375 29.9497 6.375 28.5V25.5C6.375 24.8787 6.87868 24.375 7.5 24.375Z" fill="#EA7C69"/>
<path d="M16.1069 5.625C15.3353 5.625 14.6917 6.21468 14.6243 6.98332C14.3939 9.61239 14.3532 12.2544 14.5026 14.8888C14.1321 14.9092 13.7618 14.933 13.3916 14.9599L11.1573 15.1228C10.2959 15.1856 9.81433 16.1461 10.2794 16.874C11.8725 19.3671 13.9251 21.5345 16.3281 23.2606L17.2232 23.9036C17.6874 24.2371 18.3127 24.2371 18.777 23.9036L19.6721 23.2606C22.075 21.5345 24.1277 19.3671 25.7208 16.874C26.1858 16.1461 25.7043 15.1856 24.8428 15.1228L22.6086 14.9599C22.2384 14.933 21.8681 14.9092 21.4976 14.8888C21.6469 12.2544 21.6063 9.61239 21.3758 6.98332C21.3085 6.21468 20.6648 5.625 19.8932 5.625H16.1069Z" fill="#EA7C69"/>
</svg>
