<svg width="20" height="21" viewBox="0 0 20 21" fill="none" xmlns="http://www.w3.org/2000/svg">
<path d="M16.9512 16.0905C17.2543 16.0905 17.5 16.3314 17.5 16.6285C17.5 16.9008 17.2935 17.1259 17.0257 17.1615L16.9512 17.1664H11.2258C10.9227 17.1664 10.677 16.9256 10.677 16.6285C10.677 16.3561 10.8835 16.1311 11.1514 16.0955L11.2258 16.0905H16.9512ZM11.3827 3.7636C12.4217 2.74514 14.1069 2.74514 15.1459 3.7636L16.2245 4.82092C17.2635 5.83938 17.2635 7.49129 16.2245 8.50976L8.11717 16.4569C7.65359 16.9113 7.02506 17.1663 6.36901 17.1663H3.04878C2.74035 17.1663 2.49249 16.9172 2.50017 16.615L2.58369 13.331C2.6003 12.7103 2.85939 12.1185 3.30722 11.6795L11.3827 3.7636ZM10.755 5.89892L4.08332 12.4403C3.83438 12.6843 3.69012 13.0138 3.68089 13.3585L3.61121 16.0901L6.36901 16.0905C6.69352 16.0905 7.00559 15.9785 7.2519 15.7762L7.34108 15.6962L14.0458 9.12392L10.755 5.89892ZM14.3698 4.52437C13.7594 3.92606 12.7691 3.92606 12.1588 4.52437L11.5317 5.13809L14.8217 8.36309L15.4484 7.749C16.0249 7.18393 16.0569 6.28669 15.5445 5.68472L15.4484 5.58168L14.3698 4.52437Z" fill="#EA7C69"/>
</svg>
